<?xml version="1.0" standalone="no"?>
<!DOCTYPE svg PUBLIC "-//W3C//DTD SVG 20010904//EN"
 "http://www.w3.org/TR/2001/REC-SVG-20010904/DTD/svg10.dtd">
<svg version="1.0" xmlns="http://www.w3.org/2000/svg"
 width="200.000000pt" height="200.000000pt" viewBox="0 0 200.000000 200.000000"
 preserveAspectRatio="xMidYMid meet">
<metadata>
Created by potrace 1.16, written by Peter Selinger 2001-2019
</metadata>
<g transform="translate(0.000000,200.000000) scale(0.100000,-0.100000)"
fill="#000000" stroke="none">
<path d="M879 1321 c-12 -10 -28 -36 -34 -57 -8 -32 -16 -40 -38 -42 -25 -3
-27 -1 -27 37 l0 41 -70 0 -70 0 0 -40 c0 -36 -2 -40 -25 -40 -14 0 -37 -11
-50 -25 -25 -24 -25 -25 -25 -221 0 -196 0 -196 -24 -215 -14 -11 -28 -28 -31
-39 -4 -11 -15 -20 -26 -20 -10 0 -27 -8 -37 -18 -10 -10 -32 -24 -49 -31 -62
-25 -66 -113 -7 -140 31 -14 194 -15 194 -1 0 6 -38 10 -93 10 -78 0 -97 3
-110 18 -34 38 -9 102 39 102 11 0 25 9 32 21 11 17 20 20 43 15 25 -5 29 -3
29 18 0 30 39 66 72 66 17 0 36 -11 53 -31 20 -24 29 -29 38 -20 17 17 62 13
80 -7 22 -25 21 -44 -3 -65 -11 -9 -20 -22 -20 -28 0 -6 9 -1 19 12 19 23 21
23 48 9 34 -19 43 -63 17 -91 -13 -14 -31 -19 -71 -19 -29 0 -53 -4 -53 -10 0
-14 83 -13 113 1 25 11 47 47 47 74 0 13 42 15 285 15 l286 0 24 25 c24 24 25
28 25 180 l0 155 40 0 c22 0 40 5 40 10 0 6 -18 10 -40 10 l-40 0 0 99 c0 96
-1 100 -26 120 -15 12 -33 21 -40 21 -22 0 -16 19 15 51 20 20 39 29 61 29 34
0 90 -46 90 -74 0 -20 9 -20 34 -1 30 23 74 18 101 -10 33 -32 31 -56 -5 -77
-17 -9 -30 -22 -30 -28 0 -5 9 -1 20 10 43 43 120 4 120 -60 0 -19 -9 -40 -25
-55 -22 -22 -32 -25 -105 -25 -47 0 -80 -4 -80 -10 0 -6 34 -10 81 -10 79 0
82 1 115 34 48 48 47 87 -5 136 -21 20 -42 46 -45 58 -4 12 -21 33 -38 47 -32
27 -66 30 -110 11 -11 -5 -18 -1 -23 14 -8 26 -61 60 -95 60 -37 0 -85 -33
-100 -69 l-12 -31 -98 0 -98 0 -11 44 c-16 66 -37 76 -152 76 -80 0 -101 -3
-120 -19z m229 -24 c6 -7 17 -34 24 -60 l12 -47 131 0 c89 0 135 -4 143 -12
17 -17 17 -519 0 -536 -9 -9 -90 -12 -302 -12 -261 0 -293 2 -312 18 -12 9
-24 25 -28 36 -6 17 1 18 131 15 220 -6 453 0 453 11 0 6 -47 10 -121 10
l-121 0 31 32 c39 40 64 118 55 175 -3 24 -19 63 -35 88 l-29 45 50 0 c28 0
50 5 50 10 0 6 -27 10 -62 10 -35 0 -93 7 -129 17 -61 15 -69 15 -117 0 -39
-13 -88 -17 -206 -17 l-156 0 0 43 c0 24 5 48 12 55 8 8 47 12 108 12 136 0
290 12 290 22 0 4 -27 8 -59 8 l-60 0 9 31 c16 55 24 59 130 59 67 0 101 -4
108 -13z m-42 -236 c91 -42 131 -158 85 -248 -66 -131 -257 -130 -320 0 -77
158 77 320 235 248z m-245 -30 c-31 -43 -42 -80 -42 -136 0 -62 11 -93 51
-139 l32 -36 -54 0 c-30 0 -59 5 -65 11 -6 6 -28 9 -49 7 -29 -2 -44 2 -61 20
-12 12 -31 22 -43 22 -19 0 -20 6 -20 140 l0 140 136 0 135 0 -20 -29z"/>
<path d="M943 1005 c-36 -15 -73 -68 -73 -103 0 -40 28 -90 59 -106 93 -48
194 20 178 120 -7 44 -31 72 -74 90 -40 17 -49 17 -90 -1z"/>
</g>
</svg>

