<?xml version="1.0" standalone="no"?>
<!DOCTYPE svg PUBLIC "-//W3C//DTD SVG 20010904//EN"
 "http://www.w3.org/TR/2001/REC-SVG-20010904/DTD/svg10.dtd">
<svg version="1.0" xmlns="http://www.w3.org/2000/svg"
 width="300.000000pt" height="270.000000pt" viewBox="0 0 300.000000 270.000000"
 preserveAspectRatio="xMidYMid meet">
<metadata>
Created by potrace 1.10, written by Peter Selinger 2001-2011
</metadata>
<g transform="translate(0.000000,270.000000) scale(0.100000,-0.100000)"
fill="#000000" stroke="none">
<path d="M52 1348 c1 -744 5 -1295 9 -1223 11 209 10 2575 -1 2575 -7 0 -9
-461 -8 -1352z"/>
<path d="M2875 1360 c0 -740 1 -1042 2 -672 2 369 2 975 0 1345 -1 369 -2 67
-2 -673z"/>
<path d="M2186 2632 c-16 -2 -47 -15 -70 -29 -39 -25 -151 -132 -190 -182 -51
-66 -129 -197 -145 -243 -21 -60 -11 -57 -141 -38 -119 17 -430 3 -430 -20 0
-4 26 -5 58 -1 100 11 397 6 479 -9 1 0 0 -15 -3 -32 -4 -23 9 -6 45 60 28 51
67 116 87 144 26 35 34 52 25 57 -9 6 -8 11 4 21 13 11 15 10 9 -4 -11 -29 12
-17 44 23 33 40 155 137 210 165 17 9 32 21 32 27 0 6 -9 5 -22 -3 -13 -7 -25
-12 -28 -13 -3 0 -12 -6 -20 -12 -47 -40 -126 -98 -133 -98 -5 0 -20 -13 -33
-30 -12 -16 -26 -27 -29 -24 -3 3 15 28 40 54 25 27 45 52 45 56 0 7 84 71
125 96 33 20 79 16 103 -10 26 -27 28 -37 8 -37 -8 0 -18 9 -21 20 -3 11 -10
20 -15 20 -5 0 14 -44 41 -97 27 -53 56 -118 63 -144 8 -26 19 -56 24 -66 10
-18 37 -166 47 -258 5 -44 25 -90 25 -56 0 18 54 -87 91 -176 17 -40 27 -78
23 -84 -4 -7 -3 -9 4 -5 7 4 13 -7 18 -29 3 -19 10 -35 14 -35 5 0 30 -74 46
-140 0 -3 4 -12 7 -20 9 -22 48 -180 52 -212 2 -15 6 -35 9 -45 2 -10 7 -40
11 -68 3 -27 10 -63 15 -80 5 -16 10 -39 10 -50 0 -11 3 -47 6 -80 3 -33 7
-94 10 -135 l6 -76 -74 -66 c-84 -77 -131 -110 -197 -140 -25 -11 -74 -33
-107 -49 -34 -15 -98 -35 -143 -44 -215 -44 -198 -44 -242 6 -21 24 -39 46
-39 49 0 3 46 29 103 57 56 28 137 76 180 107 43 31 84 53 90 50 7 -4 9 -3 4
1 -4 5 7 24 25 42 17 18 29 35 26 39 -6 5 -27 -10 -92 -69 -42 -38 -150 -110
-211 -140 -75 -38 -143 -67 -155 -67 -6 0 9 -25 34 -56 26 -31 46 -60 46 -65
0 -10 40 -7 165 12 192 30 407 137 557 277 l48 45 0 67 c0 37 -4 90 -10 119
-5 28 -17 111 -26 184 -9 72 -19 137 -24 142 -4 6 -13 44 -20 85 -7 41 -19 95
-27 120 -8 25 -22 74 -33 110 -18 62 -45 137 -88 245 -11 28 -42 91 -68 140
-38 72 -49 104 -55 160 -27 267 -97 480 -170 526 -13 8 -37 13 -53 11z m104
-111 c0 -9 5 -22 12 -29 7 -7 9 -12 5 -12 -4 0 2 -18 13 -40 20 -39 27 -70 13
-56 -5 4 -8 11 -9 14 0 4 -8 24 -17 44 -10 21 -17 42 -17 48 0 5 -4 10 -9 10
-10 0 -21 36 -14 44 10 9 23 -4 23 -23z"/>
<path d="M695 2598 c-29 -37 -65 -115 -90 -197 -14 -47 -48 -235 -57 -316 -2
-17 -13 -44 -25 -60 -41 -58 -131 -254 -173 -377 -23 -67 -43 -127 -44 -133
-1 -5 -4 -14 -8 -20 -3 -5 -11 -37 -18 -70 -6 -33 -17 -80 -25 -105 -7 -25
-19 -79 -25 -120 -6 -41 -17 -111 -26 -155 -8 -44 -18 -132 -23 -195 l-9 -115
62 -60 c81 -80 117 -105 220 -160 142 -74 257 -108 443 -128 40 -5 42 -4 84
54 23 32 47 59 53 59 6 1 -9 9 -34 19 -129 51 -289 148 -362 218 -20 19 -41
32 -47 29 -7 -5 1 -17 21 -34 18 -15 39 -33 48 -40 39 -34 94 -72 111 -77 10
-4 19 -11 19 -16 0 -5 7 -9 15 -9 8 0 24 -9 34 -19 11 -11 21 -17 24 -15 2 3
34 -10 70 -29 l65 -33 -28 -33 c-16 -18 -30 -37 -32 -42 -4 -12 -58 -20 -58
-9 0 3 -13 5 -29 2 -31 -4 -187 31 -238 54 -17 8 -36 14 -41 14 -23 0 -192 95
-188 105 2 6 -5 11 -18 11 -12 -1 -20 4 -18 12 1 6 -5 12 -13 12 -24 0 -119
90 -131 124 -8 23 -8 64 2 156 14 143 33 270 42 285 3 5 7 16 8 25 17 159 99
428 197 645 17 39 34 72 37 75 3 3 14 23 25 45 l19 40 4 -32 c3 -31 26 -51 37
-32 4 5 1 8 -7 7 -17 -4 -15 45 5 179 21 129 62 251 134 389 l27 52 25 -18
c15 -9 53 -34 86 -55 72 -46 221 -194 258 -256 39 -67 97 -185 97 -198 0 -18
-20 -13 -26 7 -30 98 -139 259 -237 348 -63 57 -174 134 -192 134 -11 0 -30
-40 -72 -145 -13 -33 -28 -68 -34 -78 -12 -23 -57 -238 -60 -294 -4 -57 9 -66
17 -13 5 32 9 38 16 26 5 -9 14 -16 21 -16 9 0 9 2 1 8 -29 18 -18 208 16 277
9 20 32 75 35 85 8 31 31 80 38 80 4 0 6 3 3 8 -2 4 2 16 10 26 13 18 16 17
76 -22 77 -50 247 -212 222 -212 -2 0 7 -12 21 -27 25 -28 25 -28 4 -35 -13
-5 -27 -4 -36 4 -13 10 -15 9 -11 -7 3 -16 11 -20 43 -20 32 0 40 -4 43 -20 3
-16 1 -18 -9 -7 -14 13 -49 17 -48 5 0 -5 4 -17 9 -28 8 -18 9 -18 9 -2 1 15
7 17 32 13 17 -2 32 -6 32 -8 1 -2 13 -25 27 -53 28 -57 56 -67 53 -20 -1 17
-3 41 -4 54 -2 36 -78 188 -114 228 -5 6 -30 39 -54 73 -51 71 -149 163 -203
191 -58 30 -102 25 -133 -13z m140 -11 c9 -10 21 -17 27 -17 5 0 8 -7 5 -14
-4 -10 -1 -13 9 -9 10 3 28 -9 51 -33 55 -60 166 -205 161 -210 -3 -2 -21 16
-40 41 -19 24 -39 41 -43 37 -5 -4 -6 -2 -2 4 3 5 -5 18 -18 28 -14 10 -22 22
-19 27 3 5 -2 9 -10 9 -9 0 -16 5 -16 12 0 6 -3 9 -6 5 -3 -3 -35 16 -71 44
-35 27 -69 49 -75 49 -6 0 -20 8 -31 17 -18 17 -20 17 -39 -7 -12 -14 -36 -58
-55 -97 -18 -40 -36 -73 -38 -73 -6 0 30 90 52 132 45 80 44 80 95 75 25 -2
54 -11 63 -20z"/>
<path d="M2129 2495 c-61 -42 -161 -134 -217 -200 -31 -38 -105 -162 -122
-205 -7 -19 -20 -41 -28 -47 -9 -7 -11 -13 -5 -13 12 0 40 36 61 80 42 83 42
83 83 77 34 -4 39 -2 39 14 0 10 -1 19 -3 19 -1 0 -17 -4 -35 -9 -20 -6 -30
-6 -27 0 4 5 14 9 23 9 14 0 14 2 3 9 -7 5 -10 14 -7 20 4 6 12 8 18 5 7 -4 8
-2 4 4 -4 7 8 28 28 48 20 21 36 41 36 45 0 4 9 11 20 14 11 4 18 10 16 14 -3
4 7 16 21 27 15 10 31 24 37 29 24 23 75 55 83 53 4 -2 9 2 11 7 4 11 32 29
37 23 14 -16 78 -160 100 -228 21 -64 28 -105 29 -170 1 -62 4 -84 14 -82 8 1
12 -11 12 -37 0 -41 22 -72 36 -50 4 7 3 9 -3 6 -6 -4 -13 21 -17 66 -4 39
-11 87 -16 107 -4 19 -13 60 -20 90 -18 91 -115 320 -134 320 -6 0 -41 -21
-77 -45z"/>
<path d="M938 2209 c20 -32 39 -59 42 -59 3 0 7 13 8 30 2 22 -1 28 -12 24 -9
-4 -20 5 -30 24 -8 16 -22 32 -30 35 -8 3 2 -20 22 -54z"/>
<path d="M2014 2235 c-20 -26 -29 -33 -35 -23 -5 8 -9 -4 -9 -32 l0 -45 32 55
c17 30 36 58 42 62 6 4 8 10 4 13 -3 4 -18 -10 -34 -30z"/>
<path d="M2057 2237 c-4 -10 -7 -27 -7 -38 0 -18 1 -18 35 -2 34 16 51 49 20
37 -8 -4 -15 -10 -15 -15 0 -19 -19 -8 -22 14 -3 20 -4 20 -11 4z"/>
<path d="M886 2225 c4 -8 2 -15 -4 -15 -6 0 -12 4 -14 10 -2 6 -17 6 -43 -1
-37 -11 -38 -12 -20 -26 11 -8 29 -19 40 -24 17 -9 17 -7 -2 10 -39 33 -21 43
31 16 15 -8 29 -15 30 -15 2 0 1 14 -2 30 -2 17 -8 30 -13 30 -5 0 -6 -7 -3
-15z"/>
<path d="M2140 2220 c-8 -5 -11 -10 -6 -10 5 0 -1 -11 -14 -25 -13 -14 -21
-25 -19 -25 3 0 20 11 39 25 19 14 28 25 21 25 -7 0 -9 5 -6 10 8 12 4 12 -15
0z"/>
<path d="M701 2181 c13 -10 39 -26 58 -36 31 -16 33 -16 27 0 -3 9 -6 26 -6
36 0 11 -4 18 -10 14 -5 -3 -6 -12 -3 -21 4 -12 -2 -11 -31 5 -46 26 -67 27
-35 2z"/>
<path d="M2178 2190 c-9 -22 -17 -60 -13 -60 8 0 81 45 95 59 12 12 11 13 -10
6 -14 -4 -33 -14 -42 -22 -15 -13 -17 -12 -20 9 -3 16 -6 19 -10 8z"/>
<path d="M631 2173 c-1 -14 13 -33 41 -57 24 -19 44 -33 46 -31 2 2 -8 25 -21
52 -20 38 -27 44 -32 31 -10 -25 -23 -22 -28 5 -4 22 -4 22 -6 0z"/>
<path d="M920 2170 c0 -17 -3 -19 -19 -10 -28 14 -35 12 -21 -6 17 -19 56 -41
46 -25 -16 25 13 9 30 -16 9 -15 19 -22 21 -16 4 10 -44 93 -53 93 -2 0 -4 -9
-4 -20z"/>
<path d="M2005 2157 c-46 -74 -47 -77 -30 -71 8 4 15 11 15 18 0 6 10 17 21
25 19 11 21 11 16 -2 -11 -30 18 -40 54 -18 31 19 55 19 44 0 -4 -5 -2 -9 3
-9 8 0 24 60 18 67 -1 1 -22 -11 -46 -27 -59 -39 -83 -39 -45 0 28 29 25 39
-5 20 -11 -7 -16 -4 -20 10 -4 17 -7 16 -25 -13z"/>
<path d="M808 2140 c2 -16 11 -35 20 -42 13 -12 14 -10 3 10 -10 18 -9 22 4
22 9 0 13 -4 10 -10 -3 -6 4 -10 17 -10 13 0 28 -4 34 -10 6 -6 15 -6 24 0 13
8 12 10 -4 10 -10 0 -38 14 -63 30 -24 17 -45 30 -47 30 -1 0 -1 -13 2 -30z"/>
<path d="M1864 2158 c-5 -8 -2 -9 11 -5 14 6 16 3 12 -13 -3 -11 -1 -23 4 -26
5 -3 9 -2 9 3 0 4 3 18 6 31 5 17 2 22 -14 22 -12 0 -24 -5 -28 -12z"/>
<path d="M1934 2146 c-3 -14 -1 -33 5 -43 8 -15 10 -10 11 25 0 47 -6 55 -16
18z"/>
<path d="M2251 2126 c-11 -22 -20 -41 -18 -43 5 -4 87 67 87 75 0 4 -11 7 -24
7 -17 0 -29 -11 -45 -39z"/>
<path d="M998 2121 c-3 -35 -1 -38 15 -30 9 6 22 7 27 4 5 -3 11 -1 15 5 3 5
-1 10 -9 10 -9 0 -18 11 -22 25 -9 37 -21 30 -26 -14z"/>
<path d="M2198 2125 c-39 -26 -56 -45 -39 -45 5 0 13 5 16 10 14 22 23 8 13
-21 -6 -16 -8 -33 -4 -36 3 -4 6 -1 6 6 0 7 11 35 25 62 13 27 23 49 22 48 -1
0 -19 -11 -39 -24z"/>
<path d="M720 2136 c0 -3 10 -26 22 -51 19 -40 20 -47 8 -56 -13 -9 -13 -10 0
-6 16 4 18 39 5 72 -8 19 -8 19 12 3 11 -10 28 -18 39 -17 14 0 15 2 4 6 -8 3
-17 9 -20 13 -7 10 -70 42 -70 36z"/>
<path d="M633 2106 c4 -10 7 -30 7 -44 l1 -27 13 24 13 23 20 -26 c20 -25 43
-35 43 -18 0 8 -59 58 -89 77 -11 6 -13 4 -8 -9z"/>
<path d="M2281 2092 c-57 -46 -84 -72 -74 -72 6 0 28 14 49 31 l39 31 6 -24
c4 -19 7 -16 11 17 3 22 5 41 4 42 -1 1 -17 -10 -35 -25z"/>
<path d="M1910 2101 c0 -6 4 -13 10 -16 6 -3 7 1 4 9 -7 18 -14 21 -14 7z"/>
<path d="M1717 1951 c-7 -17 -16 -28 -20 -24 -7 7 -11 -10 -7 -41 1 -11 -3
-15 -9 -12 -6 4 -11 20 -11 36 0 33 -9 60 -20 60 -10 0 7 -101 20 -114 12 -12
40 17 40 41 0 8 7 28 16 44 8 17 13 33 10 36 -3 4 -12 -8 -19 -26z"/>
<path d="M1751 1969 c4 -18 -19 -87 -37 -116 -21 -34 -62 -31 -70 5 -3 15 -12
47 -19 72 l-14 45 0 -39 c-1 -48 16 -100 38 -113 29 -18 76 3 89 40 7 18 12
42 12 53 0 14 3 15 9 6 5 -9 8 -3 9 17 0 17 -4 33 -9 37 -6 3 -9 0 -8 -7z"/>
<path d="M825 1851 c-8 -14 5 -131 18 -156 23 -44 66 -57 103 -31 23 16 77
146 72 173 -2 10 -11 18 -21 18 -17 0 -26 -15 -68 -122 -5 -13 -15 -23 -23
-23 -13 0 -24 36 -38 125 -4 22 -32 32 -43 16z m38 -79 c7 -60 12 -72 30 -78
25 -8 57 26 57 62 0 13 4 24 10 24 5 0 12 16 16 35 3 20 12 35 20 35 20 0 18
-11 -17 -95 -25 -59 -37 -77 -57 -82 -49 -12 -76 25 -87 121 -6 48 -5 58 6 54
9 -3 17 -30 22 -76z"/>
<path d="M2288 1612 c-13 -15 -40 -74 -51 -112 -3 -8 -8 13 -12 48 -4 34 -10
60 -13 58 -10 -10 10 -136 22 -136 6 0 23 31 36 70 14 41 30 71 40 72 10 2 11
6 4 10 -6 4 -18 0 -26 -10z"/>
<path d="M2173 1604 c-10 -27 15 -148 34 -161 43 -32 81 3 103 95 18 78 7 73
-21 -9 -27 -81 -49 -103 -76 -77 -21 22 -37 149 -19 160 8 6 7 8 -2 8 -7 0
-15 -7 -19 -16z"/>
<path d="M418 1498 c7 -7 12 -24 12 -39 0 -36 17 -79 30 -79 6 0 16 13 21 29
6 17 19 46 29 65 10 20 14 36 9 36 -5 0 -14 -11 -21 -25 -6 -13 -15 -22 -19
-19 -5 3 -6 -2 -3 -10 3 -8 1 -23 -4 -32 -9 -15 -10 -15 -16 7 -15 51 -29 79
-39 79 -7 0 -7 -4 1 -12z"/>
<path d="M390 1473 c1 -35 21 -108 33 -115 23 -15 64 -8 85 15 12 13 20 26 16
29 -3 4 2 23 11 43 10 19 15 38 11 42 -7 7 -36 -59 -36 -81 0 -9 -11 -23 -24
-31 -38 -25 -62 -6 -76 60 -11 54 -20 71 -20 38z"/>
<path d="M1692 1390 c-47 -51 -67 -110 -67 -198 0 -48 4 -87 10 -89 6 -2 10
33 10 90 0 92 1 95 38 151 34 51 39 55 53 41 8 -8 26 -18 40 -21 13 -3 24 -9
24 -14 0 -11 190 -54 237 -53 41 0 43 -1 49 -34 9 -49 -3 -120 -27 -168 -21
-39 -74 -106 -84 -105 -3 0 -22 -7 -43 -16 -25 -10 -57 -14 -98 -12 -51 3 -68
9 -102 37 -23 18 -49 46 -59 62 -11 18 -20 24 -24 17 -12 -19 57 -91 111 -115
40 -18 147 -26 156 -12 3 5 15 9 26 9 12 0 32 9 44 21 21 20 23 20 51 4 l28
-17 -24 19 -24 20 32 33 c17 18 29 35 27 37 -2 3 5 25 16 49 23 53 21 152 -4
177 -10 11 -38 17 -79 18 -68 2 -219 43 -231 63 -4 6 -8 7 -8 3 0 -5 -10 -1
-22 7 -29 20 -33 20 -56 -4z"/>
<path d="M1162 1359 c-58 -33 -181 -61 -249 -57 -56 3 -83 -21 -83 -74 0 -49
19 -128 31 -128 5 0 9 -8 9 -17 0 -9 7 -25 17 -35 10 -11 12 -18 4 -18 -14 0
-81 -68 -81 -83 0 -6 8 0 17 13 24 34 55 59 73 59 8 0 31 -13 50 -29 19 -17
43 -30 55 -30 14 0 8 8 -25 29 -79 49 -131 142 -129 231 1 61 6 65 94 66 90 1
231 42 261 75 23 26 31 24 50 -13 9 -18 20 -35 24 -38 4 -3 12 -27 18 -55 12
-56 2 -137 -21 -182 -28 -53 -110 -113 -155 -113 -28 0 -33 -22 -11 -51 10
-13 19 -30 19 -36 0 -15 20 -18 20 -4 0 5 -6 16 -14 23 -7 8 -16 23 -20 35 -6
18 -1 21 38 27 36 6 54 16 87 51 24 25 48 58 55 75 7 17 20 33 29 37 13 4 14
7 3 14 -10 6 -10 15 -2 36 6 16 7 35 3 43 -4 8 -10 31 -14 51 -7 47 -60 129
-82 129 -10 -1 -42 -14 -71 -31z"/>
<path d="M1488 1123 c12 -2 30 -2 40 0 9 3 -1 5 -23 4 -22 0 -30 -2 -17 -4z"/>
<path d="M1588 1113 c7 -3 16 -2 19 1 4 3 -2 6 -13 5 -11 0 -14 -3 -6 -6z"/>
<path d="M1550 1043 c0 -12 5 -25 10 -28 6 -4 18 -25 27 -46 8 -22 17 -38 20
-35 2 2 -9 33 -26 68 -19 40 -30 55 -31 41z"/>
<path d="M1320 1043 c0 -4 12 -31 28 -60 25 -49 42 -66 42 -43 0 6 -4 10 -8
10 -4 0 -16 20 -27 45 -17 43 -35 67 -35 48z"/>
<path d="M1401 1043 c-1 -18 31 -83 41 -83 12 0 10 9 -11 38 -10 15 -21 34
-24 42 -3 8 -6 10 -6 3z"/>
<path d="M1480 1047 c0 -3 10 -26 22 -53 12 -27 21 -52 20 -56 -1 -5 5 -8 13
-8 9 0 12 6 9 15 -4 8 -9 15 -13 15 -5 0 -13 18 -20 40 -6 21 -16 42 -21 45
-6 3 -10 4 -10 2z"/>
<path d="M1049 949 c16 -6 28 -6 35 1 7 7 -1 10 -24 9 -33 0 -34 -1 -11 -10z"/>
<path d="M2085 940 c3 -5 8 -10 11 -10 2 0 4 5 4 10 0 6 -5 10 -11 10 -5 0 -7
-4 -4 -10z"/>
<path d="M940 934 c0 -5 21 -46 38 -73 1 -2 4 -2 7 1 3 3 -4 22 -16 42 -20 34
-29 43 -29 30z"/>
<path d="M1020 935 c0 -10 50 -105 55 -105 5 0 -7 33 -30 78 -15 29 -25 40
-25 27z"/>
<path d="M1870 871 c17 -34 34 -61 36 -58 6 6 -27 73 -51 102 -9 11 -2 -9 15
-44z"/>
<path d="M1916 922 c6 -4 14 -16 17 -26 4 -10 10 -16 13 -13 9 8 -15 47 -29
47 -8 0 -9 -3 -1 -8z"/>
<path d="M2000 926 c0 -7 41 -76 45 -76 2 0 -4 18 -12 40 -9 22 -20 40 -25 40
-4 0 -8 -2 -8 -4z"/>
<path d="M2130 889 c0 -5 5 -7 10 -4 6 3 10 8 10 11 0 2 -4 4 -10 4 -5 0 -10
-5 -10 -11z"/>
<path d="M2070 851 c0 -6 4 -13 10 -16 6 -3 7 1 4 9 -7 18 -14 21 -14 7z"/>
<path d="M550 846 c0 -2 24 -22 54 -45 67 -50 239 -136 315 -157 31 -8 65 -19
76 -25 11 -5 61 -16 110 -24 50 -9 104 -19 120 -22 17 -3 111 -8 211 -10 162
-4 197 -2 340 22 87 15 164 31 169 35 6 4 33 13 60 20 55 15 267 111 289 132
8 7 33 26 55 42 68 50 37 42 -46 -11 -193 -124 -366 -182 -643 -215 -99 -12
-460 -5 -469 9 -3 6 -28 11 -54 12 -27 0 -58 6 -69 12 -11 6 -30 12 -42 14
-46 7 -82 17 -111 30 -16 7 -48 19 -70 26 -22 7 -61 25 -86 41 -25 15 -51 28
-57 28 -6 0 -40 20 -76 45 -63 43 -76 50 -76 41z"/>
<path d="M990 840 c0 -5 5 -10 11 -10 5 0 7 5 4 10 -3 6 -8 10 -11 10 -2 0 -4
-4 -4 -10z"/>
<path d="M1970 830 c0 -11 4 -20 9 -20 5 0 7 9 4 20 -3 11 -7 20 -9 20 -2 0
-4 -9 -4 -20z"/>
<path d="M1660 824 c0 -9 -5 -12 -12 -8 -7 4 -8 3 -4 -4 4 -6 -5 -29 -19 -52
-29 -47 -48 -50 -112 -19 l-44 21 -49 -21 c-75 -32 -109 -24 -113 28 -1 12 -7
21 -14 21 -12 0 -17 13 -14 33 1 5 -3 6 -8 2 -11 -6 -8 -16 24 -78 26 -51 54
-57 119 -25 l52 26 48 -25 c71 -36 94 -29 128 37 15 30 33 61 38 68 8 9 7 12
-5 12 -8 0 -15 -7 -15 -16z"/>
<path d="M2050 830 c0 -5 5 -10 11 -10 5 0 7 5 4 10 -3 6 -8 10 -11 10 -2 0
-4 -4 -4 -10z"/>
<path d="M2403 825 c-7 -7 -18 -15 -25 -18 -7 -2 -10 -8 -6 -12 4 -4 17 2 29
14 12 11 21 23 18 25 -2 2 -9 -2 -16 -9z"/>
<path d="M530 821 c0 -5 9 -16 20 -24 11 -8 17 -17 13 -20 -3 -4 1 -7 10 -7
10 0 17 3 16 8 0 11 -59 55 -59 43z"/>
<path d="M915 816 c11 -8 24 -12 29 -8 5 3 1 9 -10 13 -31 12 -39 10 -19 -5z"/>
<path d="M2722 810 c0 -14 2 -19 5 -12 2 6 2 18 0 25 -3 6 -5 1 -5 -13z"/>
<path d="M998 803 c7 -3 16 -2 19 1 4 3 -2 6 -13 5 -11 0 -14 -3 -6 -6z"/>
<path d="M1220 790 c-8 -5 -10 -10 -3 -10 13 0 53 -64 53 -86 0 -8 3 -13 8
-12 4 1 18 -4 31 -11 25 -14 95 -8 116 9 21 18 60 17 95 -1 66 -36 123 -14
158 59 11 23 26 38 42 42 l25 6 -27 6 c-25 5 -30 0 -50 -39 -35 -69 -93 -104
-123 -74 -6 6 -26 17 -46 25 -35 15 -39 14 -85 -9 -27 -14 -56 -25 -65 -25
-23 0 -64 41 -88 89 -12 22 -22 41 -24 41 -1 0 -9 -5 -17 -10z"/>
<path d="M1365 790 c-3 -5 1 -10 9 -10 9 0 16 5 16 10 0 6 -4 10 -9 10 -6 0
-13 -4 -16 -10z"/>
<path d="M1418 793 c7 -3 16 -2 19 1 4 3 -2 6 -13 5 -11 0 -14 -3 -6 -6z"/>
<path d="M1508 793 c7 -3 16 -2 19 1 4 3 -2 6 -13 5 -11 0 -14 -3 -6 -6z"/>
<path d="M1328 783 c7 -3 16 -2 19 1 4 3 -2 6 -13 5 -11 0 -14 -3 -6 -6z"/>
<path d="M1840 786 c0 -2 9 -6 20 -9 11 -3 20 -1 20 4 0 5 -9 9 -20 9 -11 0
-20 -2 -20 -4z"/>
<path d="M1385 650 c-3 -5 -1 -10 4 -10 6 0 11 5 11 10 0 6 -2 10 -4 10 -3 0
-8 -4 -11 -10z"/>
</g>
</svg>
